<svg width="83" height="63" viewBox="0 0 83 63" fill="none" xmlns="http://www.w3.org/2000/svg">
<path d="M82.666 6.021C82.666 9.346 79.971 12.042 76.645 12.042H6.021C2.696 12.042 0 9.347 0 6.021C0 2.696 2.695 0 6.021 0H76.646C79.971 0 82.666 2.696 82.666 6.021Z" fill="#89939c"/>
<path d="M72.666 31.324C72.666 34.649 69.971 37.345 66.645 37.345H16.021C12.696 37.345 10 34.65 10 31.324C10 27.999 12.695 25.303 16.021 25.303H66.646C69.971 25.303 72.666 27.999 72.666 31.324Z" fill="#89939c"/>
<path d="M57.666 56.626C57.666 59.951 54.971 62.647 51.645 62.647H31.021C27.696 62.647 25 59.952 25 56.626C25 53.301 27.695 50.605 31.021 50.605H51.646C54.971 50.605 57.666 53.301 57.666 56.626Z" fill="#89939c"/>
</svg>
