<svg width="54" height="54" viewBox="0 0 54 54" fill="none" xmlns="http://www.w3.org/2000/svg">
<path d="M53.414 50.586L38.896 36.068C42.079 32.251 44 27.347 44 22C44 9.869 34.131 0 22 0C9.869 0 0 9.869 0 22C0 34.131 9.869 44 22 44C27.347 44 32.251 42.079 36.068 38.896L50.586 53.414C50.977 53.805 51.488 54 52 54C52.512 54 53.023 53.805 53.414 53.414C54.195 52.633 54.195 51.367 53.414 50.586ZM4 22C4 12.075 12.074 4 22 4C31.926 4 40 12.075 40 22C40 31.925 31.926 40 22 40C12.074 40 4 31.925 4 22Z" fill="#0C2233"/>
</svg>
