<svg width="12" height="10" viewBox="0 0 12 10" fill="none" xmlns="http://www.w3.org/2000/svg">
<path d="M5.37344 1.90566C5.9854 1.71355 6.63479 1.67259 7.26603 1.78631C7.89727 1.90003 8.49155 2.16505 8.99798 2.55865L7.88556 3.67135C7.87716 3.67975 7.87144 3.69044 7.8691 3.70208C7.86676 3.71372 7.86792 3.72579 7.87243 3.73678C7.87693 3.74777 7.88458 3.75717 7.89442 3.76382C7.90425 3.77047 7.91584 3.77408 7.92771 3.77416H11.5812C11.5891 3.77419 11.597 3.77266 11.6043 3.76965C11.6116 3.76663 11.6183 3.76221 11.6239 3.75662C11.6295 3.75102 11.634 3.74437 11.637 3.73705C11.6401 3.72974 11.6416 3.72188 11.6416 3.71395V0.060419C11.6417 0.0484704 11.6382 0.0367925 11.6315 0.0268496C11.6249 0.0169067 11.6155 0.00913866 11.6044 0.00457179C11.5934 4.92716e-06 11.5812 -0.00117287 11.5695 0.00118434C11.5578 0.00354155 11.5471 0.00933416 11.5386 0.0178164L10.4474 1.10928C8.72062 0.492125 6.82367 0.555541 5.142 1.28668C5.06427 1.32042 5.00245 1.38273 4.9693 1.46072C4.93615 1.5387 4.93419 1.62642 4.96382 1.7058C4.99345 1.78519 5.05242 1.85019 5.12856 1.88738C5.2047 1.92458 5.29221 1.93113 5.37304 1.90569L5.37344 1.90566Z" fill="#FF3166"/>
<path d="M6.26876 7.24146C5.65673 7.43366 5.00723 7.47465 4.37588 7.36093C3.74454 7.24721 3.15016 6.98216 2.64366 6.58847L3.75664 5.47577C3.76504 5.46737 3.77077 5.45668 3.77311 5.44504C3.77545 5.43339 3.77429 5.4213 3.76979 5.41031C3.76528 5.39932 3.75763 5.38992 3.74779 5.38327C3.73795 5.37662 3.72637 5.37301 3.71449 5.37293H0.060445C0.0525202 5.3729 0.0446677 5.37443 0.0373377 5.37744C0.0300077 5.38045 0.0233442 5.38491 0.0177291 5.3905C0.012114 5.3961 0.00765764 5.40272 0.00461539 5.41003C0.00157313 5.41735 4.7913e-06 5.42521 2.56973e-07 5.43314V9.08667C-3.46369e-05 9.09862 0.00348482 9.11033 0.0101111 9.12027C0.0167374 9.13021 0.0261711 9.13795 0.0372125 9.14252C0.0482538 9.14708 0.060404 9.14826 0.0721177 9.14591C0.0838314 9.14355 0.0945795 9.13776 0.102995 9.12927L1.19426 8.03784C2.92085 8.65485 4.81758 8.5914 6.49909 7.86041C6.5764 7.82645 6.6378 7.76421 6.67071 7.68643C6.70361 7.60866 6.70552 7.52125 6.67606 7.44211C6.64659 7.36297 6.58797 7.29809 6.51222 7.26077C6.43646 7.22346 6.3493 7.21652 6.2686 7.24139L6.26876 7.24146Z" fill="#FF3166"/>
</svg>
